<?xml version="1.0" encoding="UTF-8" standalone="no"?>
<!-- Created with Inkscape (http://www.inkscape.org/) -->

<svg
   width="32"
   height="32"
   viewBox="0 0 8.4666665 8.4666666"
   version="1.1"
   id="svg1"
   xml:space="preserve"
   inkscape:version="1.3.2 (091e20e, 2023-11-25)"
   sodipodi:docname="moon.svg"
   xmlns:inkscape="http://www.inkscape.org/namespaces/inkscape"
   xmlns:sodipodi="http://sodipodi.sourceforge.net/DTD/sodipodi-0.dtd"
   xmlns="http://www.w3.org/2000/svg"
   xmlns:svg="http://www.w3.org/2000/svg"><sodipodi:namedview
     id="namedview1"
     pagecolor="#ffffff"
     bordercolor="#000000"
     borderopacity="0.25"
     inkscape:showpageshadow="2"
     inkscape:pageopacity="0.0"
     inkscape:pagecheckerboard="0"
     inkscape:deskcolor="#d1d1d1"
     inkscape:document-units="px"
     inkscape:zoom="12.492362"
     inkscape:cx="8.2450381"
     inkscape:cy="9.9260652"
     inkscape:window-width="1800"
     inkscape:window-height="1041"
     inkscape:window-x="0"
     inkscape:window-y="44"
     inkscape:window-maximized="0"
     inkscape:current-layer="layer1" /><defs
     id="defs1" /><g
     inkscape:label="Layer 1"
     inkscape:groupmode="layer"
     id="layer1"><g
       id="g9"
       transform="matrix(0.96875004,0,0,0.96875004,0.13229165,0.13229166)"><circle
         style="vector-effect:non-scaling-stroke;fill:#2e2e2e;fill-rule:evenodd;stroke-width:0.264583;stroke-linecap:round;stroke-linejoin:round;-inkscape-stroke:hairline;fill-opacity:1"
         id="path1"
         cx="4.2333331"
         cy="4.2333331"
         r="4.2333331"
         inkscape:label="New Moon" /><path
         id="path2"
         style="display:inline;vector-effect:non-scaling-stroke;fill:#ffffff;fill-opacity:1;fill-rule:evenodd;stroke-width:0.264583;stroke-linecap:round;stroke-linejoin:round;-inkscape-stroke:hairline"
         d="M 4.2333332,-1.8919067e-7 A 2.1166666,4.2333331 0 0 1 6.3500002,4.2333331 2.1166666,4.2333331 0 0 1 4.2333332,8.4666663 4.2333331,4.2333331 0 0 0 8.4666662,4.2333331 4.2333331,4.2333331 0 0 0 4.2333332,-1.8919067e-7 Z"
         inkscape:label="Waxing Crescent" /><path
         id="circle1"
         style="display:none;vector-effect:non-scaling-stroke;fill:#ffffff;fill-opacity:1;fill-rule:evenodd;stroke-width:0.264583;stroke-linecap:round;stroke-linejoin:round;-inkscape-stroke:hairline"
         d="M 4.233333,-1.8919067e-7 A 4.2333331,4.2333331 0 0 0 0,4.2333331 4.2333331,4.2333331 0 0 0 4.233333,8.4666663 2.1166666,4.2333331 0 0 1 2.116667,4.2333331 2.1166666,4.2333331 0 0 1 4.233333,-1.8919067e-7 Z"
         inkscape:label="Waning Crescent" /><path
         id="path1-1"
         style="display:none;vector-effect:non-scaling-stroke;fill:#ffffff;fill-opacity:1;fill-rule:evenodd;stroke-width:0.264583;stroke-linecap:round;stroke-linejoin:round;-inkscape-stroke:hairline"
         inkscape:label="Waning Gibbous"
         d="M 4.233333,-2.7838135e-7 A 4.2333331,4.2333331 0 0 0 0,4.2333331 4.2333331,4.2333331 0 0 0 4.233333,8.4666661 2.1166666,4.2333331 0 0 0 6.349999,4.2333331 2.1166666,4.2333331 0 0 0 4.233333,-2.7838135e-7 Z" /><path
         id="path9"
         style="display:none;vector-effect:non-scaling-stroke;fill:#ffffff;fill-opacity:1;fill-rule:evenodd;stroke-width:0.264583;stroke-linecap:round;stroke-linejoin:round;-inkscape-stroke:hairline"
         inkscape:label="Waxing Gibbous"
         d="M 4.233334,-1.1e-7 A 2.1166666,4.2333331 0 0 0 2.116667,4.2333331 2.1166666,4.2333331 0 0 0 4.233334,8.4666661 4.2333331,4.2333331 0 0 0 8.466667,4.2333331 4.2333331,4.2333331 0 0 0 4.233334,-1.1e-7 Z" /><path
         id="path3"
         style="display:none;vector-effect:non-scaling-stroke;fill:#ffffff;fill-opacity:1;fill-rule:evenodd;stroke-width:0.264583;stroke-linecap:round;stroke-linejoin:round;-inkscape-stroke:hairline"
         inkscape:label="First Quarter"
         d="M 4.2333332,-1e-7 V 8.4666664 A 4.2333331,4.2333331 0 0 0 8.4666662,4.2333331 4.2333331,4.2333331 0 0 0 4.2333332,-1e-7 Z" /><path
         id="path1-7"
         style="display:none;vector-effect:non-scaling-stroke;fill:#ffffff;fill-opacity:1;fill-rule:evenodd;stroke-width:0.264583;stroke-linecap:round;stroke-linejoin:round;-inkscape-stroke:hairline"
         inkscape:label="Third Quarter"
         d="M 4.233333,-9.9999999e-8 A 4.2333331,4.2333331 0 0 0 0,4.2333331 4.2333331,4.2333331 0 0 0 4.233333,8.4666664 Z" /><circle
         style="display:inline;fill:none;fill-rule:evenodd;stroke:#2e2e2e;stroke-width:0.273118;stroke-linecap:round;stroke-linejoin:round;stroke-dasharray:none;stroke-opacity:1"
         id="circle10"
         cx="4.2333331"
         cy="4.2333331"
         r="4.2333331"
         inkscape:label="Border" /></g></g></svg>
